<svg width="17" height="17" viewBox="0 0 17 17" fill="none" xmlns="http://www.w3.org/2000/svg">
<path d="M8.5 0.1875C3.90957 0.1875 0.1875 3.90957 0.1875 8.5C0.1875 13.0904 3.90957 16.8125 8.5 16.8125C13.0904 16.8125 16.8125 13.0904 16.8125 8.5C16.8125 3.90957 13.0904 0.1875 8.5 0.1875ZM11.5689 11.658L10.3443 11.6524L8.5 9.45371L6.65752 11.6506L5.43105 11.6562C5.34941 11.6562 5.28262 11.5912 5.28262 11.5077C5.28262 11.4725 5.29561 11.4391 5.31787 11.4112L7.73184 8.53525L5.31787 5.66113C5.29545 5.63394 5.28301 5.59989 5.28262 5.56465C5.28262 5.48301 5.34941 5.41621 5.43105 5.41621L6.65752 5.42178L8.5 7.62051L10.3425 5.42363L11.5671 5.41807C11.6487 5.41807 11.7155 5.48301 11.7155 5.5665C11.7155 5.60176 11.7025 5.63516 11.6803 5.66299L9.27002 8.53711L11.6821 11.4131C11.7044 11.4409 11.7174 11.4743 11.7174 11.5096C11.7174 11.5912 11.6506 11.658 11.5689 11.658Z" fill="black"/>
</svg>
