<svg width="3" height="13" viewBox="0 0 3 13" fill="none" xmlns="http://www.w3.org/2000/svg">
<path d="M1.335 2.67C2.0723 2.67 2.67 2.0723 2.67 1.335C2.67 0.5977 2.0723 0 1.335 0C0.5977 0 0 0.5977 0 1.335C0 2.0723 0.5977 2.67 1.335 2.67Z" fill="black"/>
<path d="M1.335 7.33992C2.0723 7.33992 2.67 6.74222 2.67 6.00492C2.67 5.26762 2.0723 4.66992 1.335 4.66992C0.5977 4.66992 0 5.26762 0 6.00492C0 6.74222 0.5977 7.33992 1.335 7.33992Z" fill="black"/>
<path d="M1.335 12.0098C2.0723 12.0098 2.67 11.4121 2.67 10.6748C2.67 9.93754 2.0723 9.33984 1.335 9.33984C0.5977 9.33984 0 9.93754 0 10.6748C0 11.4121 0.5977 12.0098 1.335 12.0098Z" fill="black"/>
</svg>
