<svg width="15" height="15" viewBox="0 0 15 15" fill="none" xmlns="http://www.w3.org/2000/svg">
<path d="M10.4464 8.57145C11.2278 8.57145 11.9773 8.88188 12.5298 9.43444C13.0824 9.98701 13.3928 10.7364 13.3928 11.5179C13.3928 12.2993 13.0824 13.0488 12.5298 13.6013C11.9773 14.1539 11.2278 14.4643 10.4464 14.4643C9.66495 14.4643 8.91552 14.1539 8.36295 13.6013C7.81039 13.0488 7.49996 12.2993 7.49996 11.5179C7.49996 10.7364 7.81039 9.98701 8.36295 9.43444C8.91552 8.88188 9.66495 8.57145 10.4464 8.57145ZM7.49996 1.20538C8.01425 1.20534 8.50897 1.40253 8.88221 1.75633C9.25545 2.11014 9.47879 2.59362 9.50622 3.10717L9.50889 3.21431H12.4553C12.5571 3.21434 12.6551 3.25301 12.7295 3.32251C12.8039 3.39201 12.8491 3.48715 12.8561 3.58871C12.863 3.69027 12.8311 3.79068 12.7669 3.86965C12.7026 3.94862 12.6108 4.00026 12.51 4.01413L12.4553 4.01788H11.888L11.5484 8.2136C11.2914 8.12799 11.0253 8.07279 10.7555 8.04913L11.0823 4.01788H3.91764L4.56639 12.0172C4.59089 12.319 4.72811 12.6006 4.95076 12.8059C5.1734 13.0111 5.46516 13.1251 5.768 13.125L7.35693 13.1256C7.51068 13.4207 7.70568 13.6913 7.93389 13.9291L5.768 13.9286C5.26327 13.9286 4.77703 13.7387 4.40598 13.3965C4.03494 13.0544 3.80628 12.5851 3.7655 12.082L3.11139 4.01788H2.54461C2.44752 4.01788 2.35371 3.98272 2.28054 3.9189C2.20737 3.85508 2.15978 3.76693 2.14657 3.67074L2.14282 3.6161C2.14283 3.51901 2.17799 3.4252 2.2418 3.35203C2.30562 3.27886 2.39378 3.23127 2.48996 3.21806L2.54461 3.21431H5.49104C5.49104 2.68151 5.70269 2.17053 6.07944 1.79378C6.45619 1.41704 6.96716 1.20538 7.49996 1.20538V1.20538ZM9.11996 10.1915C9.06975 10.2417 9.04154 10.3098 9.04154 10.3808C9.04154 10.4519 9.06975 10.52 9.11996 10.5702L10.0676 11.5184L9.12104 12.4645C9.07074 12.5147 9.04246 12.5829 9.04241 12.6539C9.04236 12.725 9.07054 12.7932 9.12077 12.8435C9.17099 12.8938 9.23914 12.9221 9.31022 12.9221C9.3813 12.9222 9.44949 12.894 9.49979 12.8438L10.4464 11.8972L11.3946 12.8448C11.4193 12.8704 11.4489 12.8908 11.4816 12.9049C11.5142 12.9189 11.5494 12.9263 11.5849 12.9266C11.6205 12.9269 11.6558 12.9201 11.6887 12.9067C11.7216 12.8932 11.7515 12.8733 11.7767 12.8482C11.8018 12.823 11.8217 12.7931 11.8352 12.7602C11.8487 12.7273 11.8554 12.692 11.8551 12.6564C11.8548 12.6209 11.8474 12.5857 11.8334 12.553C11.8193 12.5204 11.7989 12.4908 11.7734 12.4661L10.8257 11.5179L11.7744 10.5697C11.8232 10.5192 11.8502 10.4515 11.8496 10.3813C11.849 10.311 11.8208 10.2438 11.7712 10.1942C11.7215 10.1445 11.6543 10.1163 11.5841 10.1157C11.5139 10.1151 11.4462 10.1421 11.3957 10.1909L10.4469 11.1391L9.49872 10.1909C9.44848 10.1407 9.38037 10.1125 9.30934 10.1125C9.23831 10.1125 9.1702 10.1407 9.11996 10.1909V10.1915ZM7.49996 2.00895C7.19454 2.00892 6.90049 2.12483 6.67724 2.33326C6.45399 2.54169 6.31819 2.8271 6.29729 3.13181L6.29461 3.21431H8.70532L8.70264 3.13181C8.68174 2.8271 8.54594 2.54169 8.32269 2.33326C8.09944 2.12483 7.80539 2.00892 7.49996 2.00895V2.00895Z" fill="black"/>
</svg>
