<svg width="14" height="13" viewBox="0 0 14 13" fill="none" xmlns="http://www.w3.org/2000/svg">
<path d="M13.0081 2.9811L10.5923 0.85829C10.4326 0.719431 10.2166 0.641479 9.99139 0.641479C9.76619 0.641479 9.55015 0.719431 9.39051 0.85829L0.825946 8.33491L0.0439825 11.2853C0.0170074 11.3931 0.0179321 11.5049 0.046689 11.6124C0.075446 11.7199 0.131309 11.8204 0.210197 11.9066C0.289084 11.9928 0.389004 12.0625 0.502656 12.1106C0.616309 12.1588 0.740823 12.1841 0.867102 12.1848C0.925943 12.1899 0.985233 12.1899 1.04407 12.1848L4.45591 11.5011L13.0081 4.03171C13.167 3.89215 13.2561 3.70328 13.2561 3.50641C13.2561 3.30953 13.167 3.12067 13.0081 2.9811V2.9811ZM4.04435 10.8535L0.846525 11.44L1.57499 8.6983L7.98297 3.11783L10.4523 5.27662L4.04435 10.8535ZM11.0038 4.75491L8.53446 2.59612L9.96669 1.35121L12.3949 3.51001L11.0038 4.75491Z" fill="black"/>
</svg>
