<svg width="24" height="24" viewBox="0 0 24 24" fill="none" xmlns="http://www.w3.org/2000/svg">
<path d="M0 4.79263V19.2074C0 20.5346 0.502176 21.7143 1.30566 22.6359C2.10914 23.5207 3.14697 24 4.3522 24H10.914V21.0138H4.3522C3.44828 21.0138 2.74523 20.2028 2.74523 19.2074V4.79263C2.74523 3.79724 3.44828 3.02304 4.3522 3.02304H10.914V0H4.3522C3.14697 0 2.10914 0.516129 1.30566 1.40092C0.502176 2.32258 0 3.46544 0 4.79263ZM7.19786 9.14286V14.894C7.19786 15.5576 7.73352 16.1106 8.33613 16.1106H14.3957V20.6452C14.3957 21.0507 14.5966 21.3825 14.9314 21.5668C15.0653 21.6037 15.1992 21.6037 15.2662 21.6037C15.5005 21.6037 15.7014 21.53 15.8688 21.3456L23.7362 12.682C24.1045 12.3502 24.071 11.6866 23.7362 11.318L15.8688 2.69124C15.4001 2.13825 14.3957 2.47005 14.3957 3.35484V7.92627H8.33613C7.73352 7.92627 7.19786 8.47926 7.19786 9.14286Z" fill="white"/>
</svg>
